<svg width="42" height="52" viewBox="0 0 42 52" fill="none" xmlns="http://www.w3.org/2000/svg">
<path d="M3.13994 51.9984V44.4384L22.5799 26.0784C24.1159 24.6864 25.2439 23.4384 25.9639 22.3344C26.6839 21.2304 27.1639 20.2224 27.4039 19.3104C27.6919 18.3984 27.8359 17.5584 27.8359 16.7904C27.8359 14.7744 27.1399 13.2384 25.7479 12.1824C24.4039 11.0784 22.4119 10.5264 19.7719 10.5264C17.6599 10.5264 15.6919 10.9344 13.8679 11.7504C12.0919 12.5664 10.5799 13.8384 9.33194 15.5664L0.835938 10.0944C2.75594 7.21437 5.44394 4.93437 8.89994 3.25437C12.3559 1.57437 16.3399 0.734375 20.8519 0.734375C24.5959 0.734375 27.8599 1.35837 30.6439 2.60637C33.4759 3.80637 35.6599 5.51038 37.1959 7.71838C38.7799 9.92638 39.5719 12.5664 39.5719 15.6384C39.5719 17.2704 39.3559 18.9024 38.9239 20.5344C38.5399 22.1184 37.7239 23.7984 36.4759 25.5744C35.2759 27.3504 33.4999 29.3424 31.1479 31.5504L15.0199 46.7424L12.7879 42.4944H41.2279V51.9984H3.13994Z" fill="white"/>
</svg>
