<svg width="41" height="52" viewBox="0 0 41 52" fill="none" xmlns="http://www.w3.org/2000/svg">
<path d="M19.2748 51.8656C15.7708 51.8656 12.2908 51.4096 8.83478 50.4976C5.37878 49.5376 2.45078 48.1936 0.0507812 46.4656L4.58678 37.5376C6.50678 38.9296 8.73878 40.0336 11.2828 40.8496C13.8268 41.6656 16.3948 42.0736 18.9868 42.0736C21.9148 42.0736 24.2188 41.4976 25.8988 40.3456C27.5788 39.1936 28.4188 37.6096 28.4188 35.5936C28.4188 33.6736 27.6748 32.1616 26.1868 31.0576C24.6988 29.9536 22.2988 29.4016 18.9868 29.4016H13.6588V21.6976L27.6988 5.78556L28.9948 9.96156H2.57078V0.601562H37.8508V8.16156L23.8828 24.0736L17.9788 20.6896H21.3628C27.5548 20.6896 32.2348 22.0816 35.4028 24.8656C38.5708 27.6496 40.1548 31.2256 40.1548 35.5936C40.1548 38.4256 39.4108 41.0896 37.9228 43.5856C36.4348 46.0336 34.1548 48.0256 31.0828 49.5616C28.0108 51.0976 24.0748 51.8656 19.2748 51.8656Z" fill="white"/>
</svg>
