<svg width="367" height="79" viewBox="0 0 367 79" fill="none" xmlns="http://www.w3.org/2000/svg">
<path d="M328.377 13.4638C326.604 21.2405 321.4 25.9078 313.595 26.7454C320.809 27.1065 325.42 32.2503 325.065 39.9084C326.486 32.4893 332.042 27.2252 339.848 26.7454C331.57 26.0282 328.022 20.5234 328.377 13.4638ZM306.625 21.6378C305.914 24.7505 303.833 26.6164 300.711 26.9517C303.598 27.0945 305.442 29.153 305.3 32.2159C305.868 29.2476 308.091 27.1426 311.213 26.95C307.901 26.6646 306.483 24.4616 306.625 21.6378ZM317.574 0C316.64 4.10158 313.897 6.56252 309.781 7.00448C313.585 7.19368 316.016 9.90569 315.83 13.9436C316.577 10.0329 319.509 7.25559 323.623 7.00448C319.259 6.62616 317.388 3.72322 317.574 0Z" fill="#FFE600"/>
<path d="M37.2403 49.5304H52.5706L48.0843 72.3426C45.2928 74.3584 42.0767 75.9198 38.4387 77.0272C34.8484 78.0848 30.9851 78.6129 26.8469 78.6129C21.512 78.6129 16.8002 77.6326 12.7116 75.667C8.67411 73.653 5.53466 70.8586 3.28971 67.2814C1.096 63.7061 0 59.603 0 54.9682C0 48.8254 1.42037 43.36 4.2628 38.5774C7.10354 33.7931 11.0676 30.0647 16.1532 27.3957C21.2372 24.6784 27.0706 23.3164 33.6517 23.3164C44.5196 23.3164 52.4475 26.7662 57.4328 33.6658L44.7945 43.563C43.1487 41.4477 41.3802 39.9619 39.4849 39.1054C37.59 38.1989 35.3708 37.7467 32.8289 37.7467C29.7884 37.7467 27.1201 38.4259 24.8274 39.7846C22.5841 41.1448 20.8394 43.0589 19.5932 45.5268C18.3964 47.9432 17.7972 50.7137 17.7972 53.8365C17.7972 56.9578 18.8198 59.4773 20.8633 61.3896C22.9085 63.2539 25.7253 64.1859 29.3138 64.1859C31.1097 64.1859 32.8289 63.9331 34.4746 63.4293L37.2403 49.5304Z" fill="url(#paint0_linear_851_611)"/>
<path d="M110.274 41.9019C110.274 46.5864 109.028 50.6898 106.535 54.2151C104.094 57.6891 100.629 60.2841 96.1421 61.997L104.891 77.4057H86.5699L79.1661 64.1123H74.8297L72.2111 77.4057H54.5625L65.0324 24.5273H88.5127C95.3929 24.5273 100.728 26.0631 104.518 29.1362C108.355 32.1578 110.274 36.4124 110.274 41.9019ZM92.4017 43.6387C92.4017 40.0633 90.2079 38.2768 85.8222 38.2768H79.9156L77.4451 50.6655H84.7008C87.1418 50.6655 89.0371 50.0604 90.384 48.8513C91.7291 47.5925 92.4017 45.8557 92.4017 43.6405V43.6387Z" fill="url(#paint1_linear_851_611)"/>
<path d="M135.403 37.9738L134.207 44.1686H156.342L153.798 57.0099H131.588L130.243 63.9608H156.492L153.8 77.4076H110.277L120.746 24.5273H163.297L160.605 37.9757H135.403V37.9738Z" fill="url(#paint2_linear_851_611)"/>
<path d="M198.735 68.1914H178.77L173.534 77.4057H154.914L188.267 24.5273H205.615L218.03 77.4057H200.456L198.735 68.1914ZM196.268 55.3486L193.726 41.8263L186.024 55.3486H196.268Z" fill="url(#paint3_linear_851_611)"/>
<path d="M237.28 38.3523H221.949L224.717 24.5273H273.024L270.257 38.3523H254.928L247.226 77.4076H229.577L237.28 38.3523Z" fill="url(#paint4_linear_851_611)"/>
<path d="M318.277 44.2473L301.958 77.4126H293.496L290.088 56.7621L279.924 77.4126H271.57L266.352 44.2473H274.153L277.395 66.5628L288.495 44.2473H295.858L299.21 66.5628L310.2 44.2473H318.277ZM322.145 44.2473H330.662L324.783 77.4126H316.266L322.145 44.2473ZM355.819 43.7539C359.116 43.7539 361.734 44.7412 363.676 46.7135C365.618 48.6448 366.588 51.4187 366.588 55.0371C366.588 56.3921 366.46 57.7269 366.204 59.044L362.907 77.4126H354.336L357.521 59.6598C357.668 58.96 357.742 58.1997 357.742 57.3776C357.742 55.6529 357.32 54.3373 356.478 53.4326C355.635 52.5279 354.371 52.0776 352.687 52.0776C350.488 52.0776 348.658 52.7962 347.191 54.2341C345.762 55.6323 344.793 57.7475 344.279 60.5833L341.312 77.4126H332.74L338.62 44.2473H346.752L346.094 47.8245C348.731 45.1108 351.973 43.7539 355.819 43.7539Z" fill="white"/>
<defs>
<linearGradient id="paint0_linear_851_611" x1="273.147" y1="23.583" x2="-0.153098" y2="77.8434" gradientUnits="userSpaceOnUse">
<stop stop-color="#FF2164"/>
<stop offset="1" stop-color="#FF0340"/>
</linearGradient>
<linearGradient id="paint1_linear_851_611" x1="273.153" y1="23.5849" x2="-0.146716" y2="77.8454" gradientUnits="userSpaceOnUse">
<stop stop-color="#FF2164"/>
<stop offset="1" stop-color="#FF0340"/>
</linearGradient>
<linearGradient id="paint2_linear_851_611" x1="273.146" y1="23.5849" x2="-0.153582" y2="77.8454" gradientUnits="userSpaceOnUse">
<stop stop-color="#FF2164"/>
<stop offset="1" stop-color="#FF0340"/>
</linearGradient>
<linearGradient id="paint3_linear_851_611" x1="273.151" y1="23.5849" x2="-0.149273" y2="77.8453" gradientUnits="userSpaceOnUse">
<stop stop-color="#FF2164"/>
<stop offset="1" stop-color="#FF0340"/>
</linearGradient>
<linearGradient id="paint4_linear_851_611" x1="273.144" y1="23.5849" x2="-0.156303" y2="77.8454" gradientUnits="userSpaceOnUse">
<stop stop-color="#FF2164"/>
<stop offset="1" stop-color="#FF0340"/>
</linearGradient>
</defs>
</svg>
